<?xml version="1.0" encoding="utf-8"?>
<!-- Generator: Adobe Illustrator 19.0.0, SVG Export Plug-In . SVG Version: 6.00 Build 0)  -->
<svg version="1.1" id="Layer_1" xmlns="http://www.w3.org/2000/svg" xmlns:xlink="http://www.w3.org/1999/xlink" x="0px" y="0px"
	 viewBox="0 0 141.5 41.7" enable-background="new 0 0 141.5 41.7" xml:space="preserve">
<g id="XMLID_15_">
	<path id="XMLID_16_" fill="#FFFFFF" d="M22.1,1c0,0.1-0.1,0.2-0.1,0.4c-0.1,0.2-0.1,0.2-0.2,0.2C21,1.7,20.4,2,20,2.4
		c-0.4,0.4-0.8,1.1-1.2,2l-7.3,15.4c0,0.1-0.1,0.1-0.2,0.2c-0.1,0-0.3,0.1-0.6,0.1c-0.2,0-0.4,0-0.6-0.1c-0.1,0-0.2-0.1-0.3-0.2
		L3.2,4.4c-0.4-1-0.8-1.7-1.2-2.1C1.7,2,1.1,1.7,0.2,1.6c-0.1,0-0.1-0.1-0.2-0.2C0,1.3,0,1.1,0,1c0-0.1,0-0.2,0.1-0.4
		s0.1-0.2,0.2-0.2c0.9,0,1.7,0,2.6,0.1c0.8,0,1.6,0.1,2.4,0.1c0.8,0,1.7,0,2.7-0.1s1.8-0.1,2.7-0.1c0.1,0,0.1,0.1,0.1,0.2
		S10.8,1,10.8,1c0,0.1,0,0.2-0.1,0.4s-0.1,0.2-0.1,0.2C9.8,1.7,9.2,1.8,8.9,2S8.4,2.4,8.4,2.8c0,0.2,0,0.4,0.1,0.6
		C8.5,3.7,8.6,3.9,8.6,4l4.1,9.6L17,4.3C17,4.2,17.1,4,17.2,3.7s0.1-0.5,0.1-0.7c0-0.4-0.1-0.7-0.3-0.9c-0.2-0.2-0.8-0.3-1.8-0.4
		c-0.1,0-0.1-0.1-0.1-0.2c0-0.1,0-0.3,0-0.4c0-0.1,0-0.3,0-0.4c0-0.1,0.1-0.2,0.2-0.2c0.8,0,1.4,0,1.8,0.1s1,0.1,1.7,0.1
		c0.6,0,1.1,0,1.5-0.1c0.4,0,1-0.1,1.6-0.1c0.1,0,0.1,0.1,0.2,0.2S22.1,0.9,22.1,1z"/>
	<path id="XMLID_18_" fill="#FFFFFF" d="M37.6,18.9c0,0.1,0,0.3-0.1,0.4c0,0.1-0.1,0.2-0.2,0.2c-0.9,0-1.8,0-2.7-0.1
		c-0.9,0-1.8-0.1-2.6-0.1c-0.8,0-1.7,0-2.6,0.1s-1.8,0.1-2.7,0.1c-0.1,0-0.1-0.1-0.2-0.2c0-0.1-0.1-0.3-0.1-0.4c0-0.1,0-0.2,0.1-0.4
		c0-0.1,0.1-0.2,0.2-0.2c1.1-0.1,1.8-0.4,2.1-0.7c0.3-0.3,0.5-0.9,0.5-1.6V4c0-0.8-0.2-1.3-0.5-1.6c-0.3-0.3-1-0.6-2.1-0.7
		c-0.1,0-0.1-0.1-0.2-0.2c0-0.1-0.1-0.3-0.1-0.4c0-0.1,0-0.2,0.1-0.4c0-0.1,0.1-0.2,0.2-0.2c0.9,0,1.8,0,2.7,0.1s1.8,0.1,2.6,0.1
		c0.8,0,1.7,0,2.6-0.1c0.9,0,1.8-0.1,2.7-0.1c0.1,0,0.1,0.1,0.2,0.2c0,0.1,0.1,0.3,0.1,0.4c0,0.1,0,0.2-0.1,0.4
		c0,0.2-0.1,0.2-0.2,0.2c-1,0.1-1.7,0.3-2.1,0.7c-0.3,0.3-0.5,0.9-0.5,1.6V16c0,0.7,0.2,1.3,0.5,1.6c0.3,0.3,1,0.6,2.1,0.7
		c0.1,0,0.1,0.1,0.2,0.2C37.5,18.7,37.6,18.9,37.6,18.9z"/>
	<path id="XMLID_20_" fill="#FFFFFF" d="M62.6,12.8c-0.1,0.8-0.2,1.9-0.4,3.1s-0.3,2.2-0.3,2.8c-0.8,0-1.8,0.2-3.1,0.6
		c-1.2,0.4-2.5,0.6-3.9,0.6c-1.9,0-3.5-0.3-5-0.8s-2.6-1.3-3.6-2.2c-1-0.9-1.7-2-2.1-3.1c-0.5-1.2-0.7-2.4-0.7-3.7c0-2.7,1-5,3.1-7
		C48.8,1,51.6,0,55.1,0C56.7,0,58,0.1,59,0.4s1.9,0.4,2.8,0.4c0,0.9,0.1,1.9,0.2,3c0.1,1.1,0.1,2.1,0.2,3c0,0.1-0.1,0.1-0.2,0.2
		S61.6,7,61.4,7c-0.1,0-0.2,0-0.3-0.1c-0.1,0-0.2-0.1-0.2-0.2c-0.2-1.3-0.9-2.6-2-3.8S56.4,1.3,55,1.3c-2.2,0-3.7,0.8-4.5,2.5
		c-0.9,1.7-1.3,3.8-1.3,6.3c0,2.5,0.4,4.5,1.3,6.1s2.3,2.4,4.4,2.4c1.7,0,3.1-0.6,4.1-1.8c1.1-1.2,1.9-2.5,2.4-4.1
		c0-0.1,0.1-0.1,0.2-0.2c0.1,0,0.3-0.1,0.3-0.1c0.1,0,0.2,0,0.4,0.1C62.5,12.7,62.6,12.8,62.6,12.8z"/>
	<path id="XMLID_22_" fill="#FFFFFF" d="M90.5,10.1c0,2.8-0.9,5.1-2.8,7c-1.9,1.9-4.5,2.9-8,2.9s-6.1-1-8-2.9
		c-1.9-1.9-2.8-4.3-2.8-7c0-2.7,0.9-5.1,2.8-7.1c1.9-2,4.5-3,8-3c3.4,0,6,1,7.9,3C89.5,4.9,90.5,7.3,90.5,10.1z M84.8,10.1
		c0-2.5-0.4-4.6-1.1-6.3c-0.7-1.7-2.1-2.5-4-2.5c-2,0-3.3,0.8-4,2.5c-0.7,1.7-1.1,3.8-1.1,6.3c0,2.5,0.4,4.6,1.1,6.2s2.1,2.4,4,2.4
		c1.9,0,3.3-0.8,4-2.4C84.4,14.7,84.8,12.6,84.8,10.1z"/>
	<path id="XMLID_25_" fill="#FFFFFF" d="M114.5,12.5c-0.1,1-0.3,2.3-0.4,3.8c-0.1,1.5-0.2,2.6-0.2,3.3c-1.2,0-2.6-0.1-4.3-0.1
		c-1.7,0-3.1,0-4.2,0c-1.2,0-2.7,0-4.5,0.1c-1.9,0-3.2,0.1-4.2,0.1c-0.1,0-0.1-0.1-0.2-0.2c0-0.1-0.1-0.3-0.1-0.4
		c0-0.1,0-0.2,0.1-0.4c0-0.1,0.1-0.2,0.2-0.2c1.1-0.1,1.8-0.4,2.1-0.7c0.3-0.3,0.5-0.9,0.5-1.6V4c0-0.8-0.2-1.3-0.5-1.6
		c-0.3-0.3-1-0.6-2.1-0.7c-0.1,0-0.1-0.1-0.2-0.2c0-0.1-0.1-0.3-0.1-0.4c0-0.1,0-0.3,0.1-0.4c0-0.1,0.1-0.2,0.2-0.2
		c0.9,0,1.8,0,2.7,0.1s1.8,0.1,2.6,0.1c0.8,0,1.7,0,2.6-0.1s1.8-0.1,2.7-0.1c0.1,0,0.1,0.1,0.2,0.2s0.1,0.3,0.1,0.4
		c0,0.1,0,0.2-0.1,0.4s-0.1,0.2-0.2,0.2c-1.1,0.1-1.8,0.3-2.1,0.7c-0.3,0.3-0.5,0.9-0.5,1.6v12.5c0,0.7,0.2,1.1,0.5,1.3
		c0.4,0.2,0.7,0.3,1.1,0.3h1.6c1.3,0,2.4-0.6,3.4-1.8s1.6-2.6,1.9-4.1c0,0,0-0.1,0.1-0.1c0.1,0,0.2,0,0.3,0c0.2,0,0.4,0,0.6,0.1
		S114.5,12.3,114.5,12.5z"/>
	<path id="XMLID_27_" fill="#FFFFFF" d="M141.5,10.1c0,2.8-0.9,5.1-2.8,7c-1.9,1.9-4.5,2.9-8,2.9s-6.1-1-8-2.9
		c-1.9-1.9-2.8-4.3-2.8-7c0-2.7,0.9-5.1,2.8-7.1c1.9-2,4.5-3,8-3c3.4,0,6,1,7.9,3C140.6,4.9,141.5,7.3,141.5,10.1z M135.8,10.1
		c0-2.5-0.4-4.6-1.1-6.3c-0.7-1.7-2.1-2.5-4-2.5c-2,0-3.3,0.8-4,2.5c-0.7,1.7-1.1,3.8-1.1,6.3c0,2.5,0.4,4.6,1.1,6.2s2.1,2.4,4,2.4
		c1.9,0,3.3-0.8,4-2.4C135.5,14.7,135.8,12.6,135.8,10.1z"/>
	<path id="XMLID_30_" fill="#FFFFFF" d="M31,36.3c0,0.1,0,0.2,0,0.3c0,0.1-0.1,0.2-0.1,0.2h-15c-0.1,0-0.1-0.1-0.1-0.2
		c0-0.1-0.1-0.2-0.1-0.3c0-0.1,0-0.2,0.1-0.4c0-0.1,0.1-0.2,0.1-0.2h15c0,0,0.1,0.1,0.1,0.2C30.9,36.1,31,36.2,31,36.3z"/>
	<path id="XMLID_32_" fill="#FFFFFF" d="M48.6,34.6c0,0,0,0.1-0.1,0.1c-0.1,0-0.2,0.1-0.3,0.1c0,0-0.1,0-0.2,0c-0.1,0-0.1,0-0.1-0.1
		c-0.1-0.5-0.5-1.2-1-1.8c-0.5-0.7-1-1-1.5-1h-0.2c-0.2,0-0.4,0-0.5,0.1c-0.1,0.1-0.1,0.2-0.1,0.4v7.1c0,0.4,0.1,0.7,0.3,0.9
		c0.2,0.2,0.6,0.3,1.2,0.4c0,0,0.1,0,0.1,0.1s0,0.2,0,0.2c0,0.1,0,0.1,0,0.2S46,41.5,46,41.5c-0.5,0-1,0-1.5,0c-0.5,0-1,0-1.4,0
		c-0.5,0-0.9,0-1.4,0c-0.5,0-1,0-1.5,0c0,0-0.1,0-0.1-0.1s0-0.1,0-0.2c0,0,0-0.1,0-0.2c0-0.1,0.1-0.1,0.1-0.1c0.6-0.1,1-0.2,1.2-0.4
		s0.3-0.5,0.3-0.9v-7.1c0-0.2,0-0.4-0.1-0.5c-0.1-0.1-0.3-0.1-0.5-0.1h-0.1c-0.4,0-0.9,0.3-1.5,0.9c-0.6,0.6-1,1.2-1.3,1.9
		c0,0,0,0.1-0.1,0.1c-0.1,0-0.1,0-0.2,0c-0.1,0-0.2,0-0.3-0.1s-0.1-0.1-0.1-0.1c0.1-0.5,0.2-1.1,0.3-1.8c0.1-0.7,0.2-1.3,0.2-1.8
		c0.4,0.1,0.9,0.1,1.6,0.1c0.7,0,1.9,0.1,3.5,0.1c1.4,0,2.5,0,3.4-0.1c0.9,0,1.5-0.1,1.8-0.1c0,0.5,0.1,1,0.1,1.7
		C48.4,33.3,48.5,33.9,48.6,34.6z"/>
	<path id="XMLID_34_" fill="#FFFFFF" d="M63.1,36.3c0,1.5-0.5,2.8-1.5,3.8c-1,1-2.5,1.6-4.3,1.6s-3.3-0.5-4.4-1.6
		c-1-1.1-1.5-2.3-1.5-3.8c0-1.5,0.5-2.8,1.5-3.9c1-1.1,2.5-1.6,4.4-1.6c1.8,0,3.3,0.5,4.3,1.6C62.6,33.5,63.1,34.8,63.1,36.3z
		 M60.1,36.3c0-1.4-0.2-2.5-0.6-3.4c-0.4-0.9-1.1-1.4-2.2-1.4c-1.1,0-1.8,0.5-2.2,1.4s-0.6,2.1-0.6,3.4c0,1.4,0.2,2.5,0.6,3.4
		c0.4,0.9,1.1,1.3,2.2,1.3c1.1,0,1.8-0.4,2.2-1.3S60.1,37.7,60.1,36.3z"/>
	<path id="XMLID_37_" fill="#FFFFFF" d="M78.2,31.4c0,0.1,0,0.1,0,0.2c0,0.1-0.1,0.1-0.1,0.1c-0.6,0.1-1,0.2-1.2,0.4
		c-0.2,0.2-0.3,0.5-0.3,0.9v4.7c0,1.1-0.3,2-1,2.8c-0.7,0.8-1.7,1.2-3.1,1.2c-1.7,0-2.9-0.4-3.8-1.1s-1.3-1.9-1.3-3.4V33
		c0-0.4-0.1-0.7-0.3-0.9c-0.2-0.2-0.6-0.3-1.2-0.4c0,0-0.1-0.1-0.1-0.1c0-0.1,0-0.1,0-0.2c0-0.1,0-0.1,0-0.2c0-0.1,0.1-0.1,0.1-0.1
		c0.5,0,1,0,1.5,0s1,0,1.4,0c0.5,0,0.9,0,1.4,0c0.5,0,1,0,1.5,0c0,0,0.1,0,0.1,0.1c0,0.1,0,0.1,0,0.2c0,0.1,0,0.1,0,0.2
		c0,0.1-0.1,0.1-0.1,0.1c-0.6,0.1-1,0.2-1.2,0.4s-0.3,0.5-0.3,0.9v4.8c0,1,0.2,1.8,0.6,2.2s1.1,0.7,2,0.7c0.9,0,1.5-0.3,2-0.8
		c0.4-0.6,0.6-1.3,0.6-2.3V33c0-0.4-0.1-0.7-0.3-0.9c-0.2-0.2-0.6-0.3-1.2-0.4c0,0-0.1-0.1-0.1-0.1c0-0.1,0-0.1,0-0.2
		c0-0.1,0-0.1,0-0.2c0-0.1,0.1-0.1,0.1-0.1c0.3,0,0.6,0,1,0s0.6,0,1,0s0.7,0,1,0s0.6,0,1,0c0,0,0.1,0,0.1,0.1
		C78.2,31.3,78.2,31.3,78.2,31.4z"/>
	<path id="XMLID_39_" fill="#FFFFFF" d="M92.7,41.2c0,0.1,0,0.1-0.1,0.2s-0.1,0.1-0.1,0.1c-0.3,0-0.7,0-1.1,0c-0.5,0-0.8,0-0.9,0
		c-0.2,0-0.6,0-0.9,0c-0.4,0-0.7,0-0.9,0l-1.9-3.8c-0.1-0.3-0.3-0.5-0.5-0.6c-0.2-0.1-0.5-0.2-0.9-0.2v2.7c0,0.4,0.1,0.7,0.2,0.9
		c0.2,0.2,0.5,0.3,1.1,0.4c0,0,0.1,0,0.1,0.1c0,0.1,0,0.2,0,0.2c0,0.1,0,0.1,0,0.2c0,0.1-0.1,0.1-0.1,0.1c-0.5,0-1,0-1.4,0
		c-0.5,0-0.9,0-1.4,0s-0.9,0-1.4,0c-0.5,0-1,0-1.5,0c0,0-0.1,0-0.1-0.1c0-0.1,0-0.1,0-0.2c0,0,0-0.1,0-0.2c0-0.1,0.1-0.1,0.1-0.1
		c0.6-0.1,1-0.2,1.1-0.4c0.2-0.2,0.3-0.5,0.3-0.9V33c0-0.4-0.1-0.7-0.3-0.9c-0.2-0.2-0.6-0.3-1.1-0.4c0,0-0.1-0.1-0.1-0.1
		c0-0.1,0-0.1,0-0.2c0-0.1,0-0.1,0-0.2c0-0.1,0.1-0.1,0.1-0.1c0.5,0,1,0,1.5,0c0.5,0,1,0,1.5,0s0.9,0,1.2,0s0.8,0,1.3,0
		c1.6,0,2.8,0.3,3.5,0.8c0.7,0.5,1.1,1.2,1.1,1.9c0,0.7-0.2,1.2-0.5,1.6s-0.9,0.7-1.6,1l2.1,3.4c0.2,0.3,0.4,0.6,0.6,0.8
		c0.2,0.1,0.6,0.2,1,0.3c0,0,0.1,0,0.1,0.1S92.7,41.1,92.7,41.2z M87.9,34c0-0.8-0.1-1.3-0.4-1.7c-0.3-0.4-0.7-0.5-1.3-0.5
		c-0.4,0-0.6,0.1-0.7,0.2c-0.1,0.1-0.2,0.4-0.2,0.7v3.4c0.1,0,0.1,0,0.3,0c0.1,0,0.2,0,0.3,0c0.7,0,1.2-0.2,1.5-0.5
		C87.7,35.4,87.9,34.8,87.9,34z"/>
	<path id="XMLID_42_" fill="#FFFFFF" d="M100.9,35.2c0.6,0.4,1.1,0.8,1.7,1.3c0.5,0.5,0.8,1.1,0.8,1.8c0,1.1-0.4,1.9-1.1,2.5
		c-0.8,0.6-1.7,0.9-2.9,0.9c-0.7,0-1.3-0.1-1.8-0.3s-1.1-0.4-1.7-0.5c0-0.4,0-0.8,0-1.4s0-1.1,0-1.6c0,0,0-0.1,0.1-0.1s0.2,0,0.2,0
		c0.1,0,0.1,0,0.2,0c0.1,0,0.1,0,0.1,0.1c0.2,0.9,0.6,1.6,1.2,2.2s1.2,0.9,1.8,0.9c0.6,0,1-0.1,1.3-0.4s0.4-0.6,0.4-1
		c0-0.5-0.3-1-0.8-1.4s-1.1-0.7-1.7-1.1c-0.6-0.4-1.2-0.8-1.7-1.2s-0.8-1.1-0.8-1.8c0-0.9,0.4-1.7,1.1-2.3c0.7-0.6,1.7-1,2.9-1
		c0.6,0,1,0.1,1.4,0.2c0.4,0.1,0.8,0.2,1.3,0.3c0,0.4,0,0.8,0.1,1.3s0.1,1,0.1,1.3c0,0,0,0.1-0.1,0.1c-0.1,0-0.2,0-0.2,0
		c-0.1,0-0.1,0-0.2,0s-0.1,0-0.1-0.1c-0.2-0.8-0.5-1.4-0.8-1.8c-0.4-0.4-0.8-0.7-1.4-0.7c-0.5,0-0.8,0.1-1.1,0.4
		c-0.3,0.2-0.4,0.6-0.4,0.9c0,0.5,0.3,0.9,0.8,1.3C99.7,34.5,100.3,34.9,100.9,35.2z"/>
	<path id="XMLID_44_" fill="#FFFFFF" d="M127.5,36.3c0,0.1,0,0.2,0,0.3c0,0.1-0.1,0.2-0.1,0.2h-15c-0.1,0-0.1-0.1-0.1-0.2
		c0-0.1-0.1-0.2-0.1-0.3c0-0.1,0-0.2,0.1-0.4c0-0.1,0.1-0.2,0.1-0.2h15c0,0,0.1,0.1,0.1,0.2C127.4,36.1,127.5,36.2,127.5,36.3z"/>
</g>
</svg>
